<svg xmlns="http://www.w3.org/2000/svg" viewBox="0 0 720 200" role="img" aria-label="Dentivara logo">
  <rect width="720" height="200" rx="44" fill="#FAF9F7"/>
  <rect x="36" y="36" width="128" height="128" rx="36" fill="#8BA88E"/>
  <path fill="#FFFFFF" d="M100 68c-10 0-19-7-32-7-25 0-43 20-43 47 0 16 7 30 14 43 6 10 8 24 11 38 3 22 10 38 24 38 10 0 14-14 18-30 3-13 5-22 8-22s5 9 8 22c4 16 8 30 18 30 14 0 21-16 24-38 3-14 5-28 11-38 7-13 14-27 14-43 0-27-18-47-43-47-13 0-22 7-32 7Zm-33 30c-9 5-15 14-15 26 0 5-4 9-9 9s-9-4-9-9c0-19 10-35 25-42 5-3 10-1 12 4 3 5 1 10-4 12Z" transform="translate(0 -2)"/>
  <text x="196" y="94" fill="#1A1C1B" font-family="Noto Serif, Georgia, serif" font-size="52" font-weight="600" letter-spacing="-1.2">Dentivara</text>
  <text x="200" y="132" fill="#737972" font-family="Manrope, Arial, sans-serif" font-size="18" font-weight="700" letter-spacing="4">PREMIUM DENTAL CARE</text>
</svg>
