<svg xmlns="http://www.w3.org/2000/svg" viewBox="0 0 720 200" role="img" aria-label="Dentivara logo">
  <rect width="720" height="200" rx="44" fill="#FAF9F7"/>
  <g transform="translate(25 30) scale(0.292969)">
    <rect width="512" height="512" rx="128" fill="#8BA88E"/>
    <path fill="#FFFFFF" d="M256 142c-18 0-33-12-55-12-43 0-75 34-75 81 0 28 12 51 25 74 10 18 14 41 18 66 6 38 17 65 42 65 18 0 25-24 32-52 5-22 9-38 13-38s8 16 13 38c7 28 14 52 32 52 25 0 36-27 42-65 4-25 8-48 18-66 13-23 25-46 25-74 0-47-32-81-75-81-22 0-37 12-55 12Zm-56 52c-16 8-27 24-27 44 0 8-7 15-15 15s-15-7-15-15c0-32 18-59 43-72 8-4 17-1 21 7s1 17-7 21Z"/>
  </g>
  <text x="196" y="94" fill="#1A1C1B" font-family="Noto Serif, Georgia, serif" font-size="52" font-weight="600" letter-spacing="-1.2">Dentivara</text>
  <text x="200" y="132" fill="#737972" font-family="Manrope, Arial, sans-serif" font-size="18" font-weight="700" letter-spacing="4">PREMIUM DENTAL CARE</text>
</svg>
